# xmcd
#
# Track frame offsets: 
#        150
#        11983
#        28054
#        48024
#        62278
#        80999
#        96302
#        112026
#        127113
#        146548
#        160889
#        177339
#        191565
#
# Disc length: 2726 seconds
#
# Revision: 0
# Processed by: cddbd v1.5.1PL0 Copyright (c) Steve Scherf et al.
# Submitted via: ExactAudioCopy v0.95a5
#
DISCID=b60aa40d
DTITLE=Shane Dwight Band - Come See Me
DYEAR=2003
DGENRE=Blues
TTITLE0=Hot Little Mama
TTITLE1=Oh Pretty Woman
TTITLE2=High Time
TTITLE3=Can't Be Satisfied
TTITLE4=Come See Me
TTITLE5=Empty Arms
TTITLE6=You're Gonna Want Me
TTITLE7=Sideman
TTITLE8=Rock This House
TTITLE9=Catfish Blues
TTITLE10=Please
TTITLE11=Pretty, Young and Mean
TTITLE12=She's So Sweet
EXTD=
EXTT0=
EXTT1=
EXTT2=
EXTT3=
EXTT4=
EXTT5=
EXTT6=
EXTT7=
EXTT8=
EXTT9=
EXTT10=
EXTT11=
EXTT12=
PLAYORDER=
